<svg width="137" height="61" viewBox="0 0 137 61" fill="none" xmlns="http://www.w3.org/2000/svg">
<path d="M29.626 55L25.8447 42.6787H25.748C25.8841 45.1852 25.9521 46.8574 25.9521 47.6953V55H22.9766V39.2949H27.5098L31.2266 51.3047H31.291L35.2334 39.2949H39.7666V55H36.6621V47.5664C36.6621 47.2155 36.6657 46.8109 36.6729 46.3525C36.6872 45.8942 36.7373 44.6768 36.8232 42.7002H36.7266L32.6768 55H29.626ZM57.6137 39.2949V49.457C57.6137 50.6172 57.3523 51.6341 56.8295 52.5078C56.3139 53.3815 55.5655 54.0511 54.5844 54.5166C53.6033 54.9821 52.4431 55.2148 51.1039 55.2148C49.0844 55.2148 47.516 54.6992 46.3988 53.668C45.2816 52.6296 44.723 51.2116 44.723 49.4141V39.2949H48.0424V48.9092C48.0424 50.1195 48.2859 51.0075 48.7729 51.5732C49.2598 52.139 50.0655 52.4219 51.1898 52.4219C52.2784 52.4219 53.0661 52.139 53.5531 51.5732C54.0473 51.0003 54.2943 50.1051 54.2943 48.8877V39.2949H57.6137ZM76.492 55H72.2596L65.4275 43.1191H65.3309C65.4669 45.2174 65.535 46.7142 65.535 47.6094V55H62.5594V39.2949H66.7596L73.5809 51.0576H73.6561C73.5486 49.0166 73.4949 47.5736 73.4949 46.7285V39.2949H76.492V55ZM95.4885 55H91.2561L84.424 43.1191H84.3273C84.4634 45.2174 84.5314 46.7142 84.5314 47.6094V55H81.5559V39.2949H85.7561L92.5773 51.0576H92.6525C92.5451 49.0166 92.4914 47.5736 92.4914 46.7285V39.2949H95.4885V55ZM100.552 55V39.2949H103.882V55H100.552ZM114.994 55H111.664V42.0664H107.399V39.2949H119.259V42.0664H114.994V55ZM127.663 45.7617L130.94 39.2949H134.528L129.318 48.8877V55H126.009V48.9951L120.799 39.2949H124.409L127.663 45.7617Z" fill="#333A4D"/>
<path d="M29.626 55L28.67 55.2934L28.8868 56H29.626V55ZM25.8447 42.6787L26.8007 42.3853L26.5839 41.6787H25.8447V42.6787ZM25.748 42.6787V41.6787H24.6923L24.7495 42.7329L25.748 42.6787ZM25.9521 55V56H26.9521V55H25.9521ZM22.9766 55H21.9766V56H22.9766V55ZM22.9766 39.2949V38.2949H21.9766V39.2949H22.9766ZM27.5098 39.2949L28.4651 38.9993L28.2471 38.2949H27.5098V39.2949ZM31.2266 51.3047L30.2713 51.6003L30.4892 52.3047H31.2266V51.3047ZM31.291 51.3047V52.3047H32.0153L32.2411 51.6166L31.291 51.3047ZM35.2334 39.2949V38.2949H34.5092L34.2833 38.983L35.2334 39.2949ZM39.7666 39.2949H40.7666V38.2949H39.7666V39.2949ZM39.7666 55V56H40.7666V55H39.7666ZM36.6621 55H35.6621V56H36.6621V55ZM36.6729 46.3525L35.6733 46.3213L35.6731 46.3291L35.673 46.3369L36.6729 46.3525ZM36.8232 42.7002L37.8223 42.7436L37.8677 41.7002H36.8232V42.7002ZM36.7266 42.7002V41.7002H36.003L35.7767 42.3875L36.7266 42.7002ZM32.6768 55V56H33.4003L33.6266 55.3127L32.6768 55ZM30.582 54.7066L26.8007 42.3853L24.8887 42.9721L28.67 55.2934L30.582 54.7066ZM25.8447 41.6787H25.748V43.6787H25.8447V41.6787ZM24.7495 42.7329C24.8858 45.2439 24.9521 46.8891 24.9521 47.6953H26.9521C26.9521 46.8258 26.8824 45.1265 26.7466 42.6245L24.7495 42.7329ZM24.9521 47.6953V55H26.9521V47.6953H24.9521ZM25.9521 54H22.9766V56H25.9521V54ZM23.9766 55V39.2949H21.9766V55H23.9766ZM22.9766 40.2949H27.5098V38.2949H22.9766V40.2949ZM26.5545 39.5906L30.2713 51.6003L32.1819 51.009L28.4651 38.9993L26.5545 39.5906ZM31.2266 52.3047H31.291V50.3047H31.2266V52.3047ZM32.2411 51.6166L36.1835 39.6068L34.2833 38.983L30.3409 50.9928L32.2411 51.6166ZM35.2334 40.2949H39.7666V38.2949H35.2334V40.2949ZM38.7666 39.2949V55H40.7666V39.2949H38.7666ZM39.7666 54H36.6621V56H39.7666V54ZM37.6621 55V47.5664H35.6621V55H37.6621ZM37.6621 47.5664C37.6621 47.222 37.6656 46.8228 37.6727 46.3682L35.673 46.3369C35.6658 46.799 35.6621 47.209 35.6621 47.5664H37.6621ZM37.6724 46.3838C37.6865 45.933 37.7362 44.7228 37.8223 42.7436L35.8242 42.6568C35.7384 44.6307 35.6879 45.8554 35.6733 46.3213L37.6724 46.3838ZM36.8232 41.7002H36.7266V43.7002H36.8232V41.7002ZM35.7767 42.3875L31.7269 54.6873L33.6266 55.3127L37.6764 43.0129L35.7767 42.3875ZM32.6768 54H29.626V56H32.6768V54ZM57.6137 39.2949H58.6137V38.2949H57.6137V39.2949ZM56.8295 52.5078L55.9714 51.9943L55.9683 51.9996L56.8295 52.5078ZM46.3988 53.668L45.718 54.4004L45.7205 54.4028L46.3988 53.668ZM44.723 39.2949V38.2949H43.723V39.2949H44.723ZM48.0424 39.2949H49.0424V38.2949H48.0424V39.2949ZM48.7729 51.5732L48.015 52.2256L48.7729 51.5732ZM53.5531 51.5732L52.7959 50.9201L52.7952 50.9209L53.5531 51.5732ZM54.2943 39.2949V38.2949H53.2943V39.2949H54.2943ZM56.6137 39.2949V49.457H58.6137V39.2949H56.6137ZM56.6137 49.457C56.6137 50.4621 56.3889 51.2965 55.9714 51.9944L57.6876 53.0213C58.3156 51.9717 58.6137 50.7723 58.6137 49.457H56.6137ZM55.9683 51.9996C55.5614 52.689 54.9698 53.2269 54.1557 53.6131L55.013 55.4201C56.1612 54.8753 57.0663 54.074 57.6907 53.0161L55.9683 51.9996ZM54.1557 53.6131C53.3361 54.002 52.3286 54.2148 51.1039 54.2148V56.2148C52.5576 56.2148 53.8704 55.9622 55.013 55.4201L54.1557 53.6131ZM51.1039 54.2148C49.2514 54.2148 47.9557 53.7442 47.0771 52.9332L45.7205 54.4028C47.0763 55.6542 48.9173 56.2148 51.1039 56.2148V54.2148ZM47.0796 52.9355C46.2025 52.1202 45.723 50.9877 45.723 49.4141H43.723C43.723 51.4355 44.3608 53.1389 45.718 54.4004L47.0796 52.9355ZM45.723 49.4141V39.2949H43.723V49.4141H45.723ZM44.723 40.2949H48.0424V38.2949H44.723V40.2949ZM47.0424 39.2949V48.9092H49.0424V39.2949H47.0424ZM47.0424 48.9092C47.0424 50.2195 47.3001 51.3951 48.015 52.2256L49.5308 50.9209C49.2717 50.6199 49.0424 50.0194 49.0424 48.9092H47.0424ZM48.015 52.2256C48.7713 53.1043 49.9233 53.4219 51.1898 53.4219V51.4219C50.2077 51.4219 49.7484 51.1737 49.5308 50.9209L48.015 52.2256ZM51.1898 53.4219C52.433 53.4219 53.5601 53.098 54.311 52.2256L52.7952 50.9209C52.5722 51.18 52.1238 51.4219 51.1898 51.4219V53.4219ZM54.3104 52.2264C55.0321 51.3896 55.2943 50.2076 55.2943 48.8877H53.2943C53.2943 50.0027 53.0625 50.611 52.7959 50.9201L54.3104 52.2264ZM55.2943 48.8877V39.2949H53.2943V48.8877H55.2943ZM54.2943 40.2949H57.6137V38.2949H54.2943V40.2949ZM76.492 55V56H77.492V55H76.492ZM72.2596 55L71.3927 55.4985L71.6811 56H72.2596V55ZM65.4275 43.1191L66.2944 42.6206L66.006 42.1191H65.4275V43.1191ZM65.3309 43.1191V42.1191H64.2639L64.333 43.1839L65.3309 43.1191ZM65.535 55V56H66.535V55H65.535ZM62.5594 55H61.5594V56H62.5594V55ZM62.5594 39.2949V38.2949H61.5594V39.2949H62.5594ZM66.7596 39.2949L67.6246 38.7933L67.3356 38.2949H66.7596V39.2949ZM73.5809 51.0576L72.7158 51.5593L73.0048 52.0576H73.5809V51.0576ZM73.6561 51.0576V52.0576H74.7101L74.6547 51.0051L73.6561 51.0576ZM73.4949 39.2949V38.2949H72.4949V39.2949H73.4949ZM76.492 39.2949H77.492V38.2949H76.492V39.2949ZM76.492 54H72.2596V56H76.492V54ZM73.1265 54.5015L66.2944 42.6206L64.5606 43.6176L71.3927 55.4985L73.1265 54.5015ZM65.4275 42.1191H65.3309V44.1191H65.4275V42.1191ZM64.333 43.1839C64.469 45.2815 64.535 46.7497 64.535 47.6094H66.535C66.535 46.6787 66.4649 45.1534 66.3288 43.0544L64.333 43.1839ZM64.535 47.6094V55H66.535V47.6094H64.535ZM65.535 54H62.5594V56H65.535V54ZM63.5594 55V39.2949H61.5594V55H63.5594ZM62.5594 40.2949H66.7596V38.2949H62.5594V40.2949ZM65.8945 39.7966L72.7158 51.5593L74.4459 50.556L67.6246 38.7933L65.8945 39.7966ZM73.5809 52.0576H73.6561V50.0576H73.5809V52.0576ZM74.6547 51.0051C74.5472 48.964 74.4949 47.5445 74.4949 46.7285H72.4949C72.4949 47.6026 72.55 49.0692 72.6574 51.1102L74.6547 51.0051ZM74.4949 46.7285V39.2949H72.4949V46.7285H74.4949ZM73.4949 40.2949H76.492V38.2949H73.4949V40.2949ZM75.492 39.2949V55H77.492V39.2949H75.492ZM95.4885 55V56H96.4885V55H95.4885ZM91.2561 55L90.3892 55.4985L90.6776 56H91.2561V55ZM84.424 43.1191L85.2909 42.6206L85.0025 42.1191H84.424V43.1191ZM84.3273 43.1191V42.1191H83.2604L83.3294 43.1839L84.3273 43.1191ZM84.5314 55V56H85.5314V55H84.5314ZM81.5559 55H80.5559V56H81.5559V55ZM81.5559 39.2949V38.2949H80.5559V39.2949H81.5559ZM85.7561 39.2949L86.6211 38.7933L86.3321 38.2949H85.7561V39.2949ZM92.5773 51.0576L91.7123 51.5593L92.0013 52.0576H92.5773V51.0576ZM92.6525 51.0576V52.0576H93.7066L93.6512 51.0051L92.6525 51.0576ZM92.4914 39.2949V38.2949H91.4914V39.2949H92.4914ZM95.4885 39.2949H96.4885V38.2949H95.4885V39.2949ZM95.4885 54H91.2561V56H95.4885V54ZM92.1229 54.5015L85.2909 42.6206L83.5571 43.6176L90.3892 55.4985L92.1229 54.5015ZM84.424 42.1191H84.3273V44.1191H84.424V42.1191ZM83.3294 43.1839C83.4655 45.2815 83.5314 46.7497 83.5314 47.6094H85.5314C85.5314 46.6787 85.4614 45.1534 85.3252 43.0544L83.3294 43.1839ZM83.5314 47.6094V55H85.5314V47.6094H83.5314ZM84.5314 54H81.5559V56H84.5314V54ZM82.5559 55V39.2949H80.5559V55H82.5559ZM81.5559 40.2949H85.7561V38.2949H81.5559V40.2949ZM84.891 39.7966L91.7123 51.5593L93.4424 50.556L86.6211 38.7933L84.891 39.7966ZM92.5773 52.0576H92.6525V50.0576H92.5773V52.0576ZM93.6512 51.0051C93.5437 48.964 93.4914 47.5445 93.4914 46.7285H91.4914C91.4914 47.6026 91.5465 49.0692 91.6539 51.1102L93.6512 51.0051ZM93.4914 46.7285V39.2949H91.4914V46.7285H93.4914ZM92.4914 40.2949H95.4885V38.2949H92.4914V40.2949ZM94.4885 39.2949V55H96.4885V39.2949H94.4885ZM100.552 55H99.5523V56H100.552V55ZM100.552 39.2949V38.2949H99.5523V39.2949H100.552ZM103.882 39.2949H104.882V38.2949H103.882V39.2949ZM103.882 55V56H104.882V55H103.882ZM101.552 55V39.2949H99.5523V55H101.552ZM100.552 40.2949H103.882V38.2949H100.552V40.2949ZM102.882 39.2949V55H104.882V39.2949H102.882ZM103.882 54H100.552V56H103.882V54ZM114.994 55V56H115.994V55H114.994ZM111.664 55H110.664V56H111.664V55ZM111.664 42.0664H112.664V41.0664H111.664V42.0664ZM107.399 42.0664H106.399V43.0664H107.399V42.0664ZM107.399 39.2949V38.2949H106.399V39.2949H107.399ZM119.259 39.2949H120.259V38.2949H119.259V39.2949ZM119.259 42.0664V43.0664H120.259V42.0664H119.259ZM114.994 42.0664V41.0664H113.994V42.0664H114.994ZM114.994 54H111.664V56H114.994V54ZM112.664 55V42.0664H110.664V55H112.664ZM111.664 41.0664H107.399V43.0664H111.664V41.0664ZM108.399 42.0664V39.2949H106.399V42.0664H108.399ZM107.399 40.2949H119.259V38.2949H107.399V40.2949ZM118.259 39.2949V42.0664H120.259V39.2949H118.259ZM119.259 41.0664H114.994V43.0664H119.259V41.0664ZM113.994 42.0664V55H115.994V42.0664H113.994ZM127.663 45.7617L126.77 46.2113L127.661 47.9802L128.556 46.2137L127.663 45.7617ZM130.94 39.2949V38.2949H130.325L130.048 38.843L130.94 39.2949ZM134.528 39.2949L135.406 39.7722L136.209 38.2949H134.528V39.2949ZM129.318 48.8877L128.439 48.4104L128.318 48.6337V48.8877H129.318ZM129.318 55V56H130.318V55H129.318ZM126.009 55H125.009V56H126.009V55ZM126.009 48.9951H127.009V48.7436L126.89 48.5219L126.009 48.9951ZM120.799 39.2949V38.2949H119.127L119.918 39.7681L120.799 39.2949ZM124.409 39.2949L125.302 38.8453L125.025 38.2949H124.409V39.2949ZM128.556 46.2137L131.832 39.7469L130.048 38.843L126.771 45.3098L128.556 46.2137ZM130.94 40.2949H134.528V38.2949H130.94V40.2949ZM133.649 38.8177L128.439 48.4104L130.197 49.365L135.406 39.7722L133.649 38.8177ZM128.318 48.8877V55H130.318V48.8877H128.318ZM129.318 54H126.009V56H129.318V54ZM127.009 55V48.9951H125.009V55H127.009ZM126.89 48.5219L121.68 38.8218L119.918 39.7681L125.128 49.4683L126.89 48.5219ZM120.799 40.2949H124.409V38.2949H120.799V40.2949ZM123.515 39.7445L126.77 46.2113L128.557 45.3121L125.302 38.8453L123.515 39.7445Z" fill="black" fill-opacity="0.2"/>
<path d="M30.5362 33.2138C27.4616 33.2126 24.5353 31.8921 22.5 29.5875C19.2373 33.2861 13.8711 34.2795 9.50063 31.9939C5.13015 29.7083 2.88468 24.7343 4.06106 19.9446C5.23744 15.1549 9.5317 11.7871 14.4637 11.7863C16.1493 11.7822 17.8115 12.1801 19.3125 12.9469C18.1418 14.3195 17.2347 15.8966 16.6369 17.5988C14.4684 16.6383 11.9266 17.218 10.389 19.0237C8.8514 20.8293 8.68411 23.4311 9.97779 25.4188C11.2715 27.4065 13.7182 28.307 15.9917 27.6321C18.2653 26.9573 19.8246 24.8679 19.8244 22.4963C19.8244 16.5792 24.6211 11.7825 30.5381 11.7825C36.4552 11.7825 41.2519 16.5792 41.2519 22.4963C41.2519 28.4133 36.4552 33.21 30.5381 33.21L30.5362 33.2138ZM25.1812 22.6875C25.2327 25.6273 27.6441 27.9762 30.5842 27.9504C33.5243 27.9247 35.8942 25.534 35.8942 22.5938C35.8942 19.6535 33.5243 17.2628 30.5842 17.2371C27.6441 17.2114 25.2327 19.5602 25.1812 22.5V22.6875Z" fill="#DD7700"/>
</svg>
