<svg width="45" height="45" viewBox="0 0 45 45" fill="none" xmlns="http://www.w3.org/2000/svg">
<path d="M30.5362 33.2138C27.4616 33.2126 24.5353 31.8921 22.5 29.5875C19.2373 33.2861 13.8711 34.2795 9.50063 31.9939C5.13015 29.7083 2.88468 24.7343 4.06106 19.9446C5.23744 15.1549 9.5317 11.7871 14.4637 11.7863C16.1493 11.7822 17.8115 12.1801 19.3125 12.9469C18.1418 14.3195 17.2347 15.8966 16.6369 17.5988C14.4684 16.6383 11.9266 17.218 10.389 19.0237C8.8514 20.8293 8.68411 23.4311 9.97779 25.4188C11.2715 27.4065 13.7182 28.307 15.9917 27.6321C18.2653 26.9573 19.8246 24.8679 19.8244 22.4963C19.8244 16.5792 24.6211 11.7825 30.5381 11.7825C36.4552 11.7825 41.2519 16.5792 41.2519 22.4963C41.2519 28.4133 36.4552 33.21 30.5381 33.21L30.5362 33.2138ZM25.1812 22.6875C25.2327 25.6273 27.6441 27.9762 30.5842 27.9504C33.5243 27.9247 35.8942 25.534 35.8942 22.5938C35.8942 19.6535 33.5243 17.2628 30.5842 17.2371C27.6441 17.2114 25.2327 19.5602 25.1812 22.5V22.6875Z" fill="#DD7700"/>
</svg>
