<?xml version="1.0" encoding="UTF-8"?>
<!DOCTYPE svg PUBLIC "-//W3C//DTD SVG 1.1//EN" "http://www.w3.org/Graphics/SVG/1.1/DTD/svg11.dtd">
<!-- Creator: CorelDRAW 2020 (64-Bit Evaluation Version) -->
<svg xmlns="http://www.w3.org/2000/svg" xml:space="preserve" width="297mm" height="210mm" version="1.1" style="shape-rendering:geometricPrecision; text-rendering:geometricPrecision; image-rendering:optimizeQuality; fill-rule:evenodd; clip-rule:evenodd"
viewBox="0 0 29700 21000"
 xmlns:xlink="http://www.w3.org/1999/xlink"
 xmlns:xodm="http://www.corel.com/coreldraw/odm/2003">
 <defs>
  <style type="text/css">
   <![CDATA[
    .str0 {stroke:#DD7538;stroke-width:20;stroke-miterlimit:22.9256}
    .fil0 {fill:#DD7538}
    .fil1 {fill:#DD7538;fill-rule:nonzero}
   ]]>
  </style>
 </defs>
 <g id="Layer_x0020_1">
  <metadata id="CorelCorpID_0Corel-Layer"/>
  <g id="_1880934044640">
   <g>
    <path class="fil0 str0" d="M10312.94 12215.92l-9.97 -3198.87c-21.91,-832.52 1032.09,-1651.8 1994.96,-1220.78l2681.14 1545.34c903.58,658.82 804.87,1821.06 109.1,2299.38l-2766.03 1608.79c-720.32,349.97 -1928.62,-131.76 -2009.2,-1033.86zm543.58 -236.04l0 -2940.53c45.6,-484.88 573.55,-1052.81 1309.18,-671.73l2474.42 1412.01c523.34,323.66 568.84,1172.85 20.57,1473.68l-2577.24 1480.54c-604.42,227.96 -1223.42,-218.83 -1226.93,-753.97z"/>
    <circle class="fil0 str0" cx="14103.79" cy="10524.46" r="300.1"/>
    <path class="fil0 str0" d="M11349.44 11956.89l-3.43 -2804.11c-27.97,-370.53 582.5,-450.03 595.22,-8.73l-0.19 810.26c54.13,472.53 650.17,302.45 625.04,3.85 -50.66,-435.85 607.71,-515.21 596.33,0l0 1274.91c-10.73,402.98 -610.98,330.47 -598.05,1.03 24.59,-536.61 -638.52,-490.13 -615.17,-7.88l6.85 774.54c4.71,342.81 -605.87,348.24 -606.6,-43.87z"/>
   </g>
   <g>
    <path class="fil0 str0" d="M8605.4 16105.92l-2.96 -2424.93c-24.19,-320.43 503.73,-389.18 514.73,-7.55l-0.16 700.7c46.8,408.63 562.25,261.55 540.52,3.32 -43.81,-376.91 525.53,-445.54 515.69,0l0 1102.52c-9.28,348.48 -528.36,285.78 -517.18,0.88 21.27,-464.04 -552.18,-423.85 -531.99,-6.81l5.93 669.8c4.07,296.46 -523.95,301.16 -524.58,-37.93z"/>
    <path class="fil1" d="M11409.07 14410.54l-686.63 0 0 321.72 539.33 0 0 293.54 -539.33 0 0 342.85 686.63 0 0 309.98 -1031.02 0 0 -1566.33 1031.02 0 0 298.24zm914.77 -298.24l449.44 1566.33 -363.53 0 -89.16 -324.07 -465.69 0 -91.33 324.07 -296.39 0 462.45 -1566.33 394.21 0zm-388.08 953.42l305.4 0 -151.25 -548.73 -154.15 548.73zm1995.61 -953.42l-435.37 1566.33 -363.88 0 -433.21 -1566.33 359.92 0 288.8 1120.15 302.15 -1120.15 281.59 0zm1162.42 298.24l-686.63 0 0 321.72 539.33 0 0 293.54 -539.33 0 0 342.85 686.63 0 0 309.98 -1031.02 0 0 -1566.33 1031.02 0 0 298.24zm1312.23 -298.24l0 1566.33 -293.13 0 -558.11 -1057.92c0.72,26.62 1.44,44.23 2.17,52.84 2.89,26.61 4.33,49.31 4.33,67.71l0 937.37 -264.25 0 0 -1566.33 366.05 0 487.35 923.67c-4.33,-45.79 -6.5,-80.62 -6.5,-104.5l0 -819.17 262.09 0z"/>
   </g>
  </g>
 </g>
</svg>
