<?xml version="1.0" encoding="UTF-8"?>
<!DOCTYPE svg PUBLIC "-//W3C//DTD SVG 1.1//EN" "http://www.w3.org/Graphics/SVG/1.1/DTD/svg11.dtd">
<!-- Creator: CorelDRAW 2020 (64-Bit Evaluation Version) -->
<svg xmlns="http://www.w3.org/2000/svg" xml:space="preserve" width="297mm" height="210mm" version="1.1" style="shape-rendering:geometricPrecision; text-rendering:geometricPrecision; image-rendering:optimizeQuality; fill-rule:evenodd; clip-rule:evenodd"
viewBox="0 0 29700 21000"
 xmlns:xlink="http://www.w3.org/1999/xlink"
 xmlns:xodm="http://www.corel.com/coreldraw/odm/2003">
 <defs>
  <style type="text/css">
   <![CDATA[
    .str0 {stroke:#DD7538;stroke-width:20;stroke-miterlimit:22.9256}
    .fil0 {fill:#DD7538}
    .fil1 {fill:#DD7538;fill-rule:nonzero}
   ]]>
  </style>
 </defs>
 <g id="Layer_x0020_1">
  <metadata id="CorelCorpID_0Corel-Layer"/>
  <g id="_1880696703648">
   <path class="fil0 str0" d="M10279.78 10473.56l-2.96 -2424.93c-24.19,-320.43 503.73,-389.18 514.73,-7.55l-0.16 700.7c46.8,408.63 562.25,261.55 540.52,3.32 -43.81,-376.91 525.53,-445.54 515.69,0l0 1102.52c-9.28,348.48 -528.36,285.78 -517.18,0.88 21.27,-464.04 -552.18,-423.85 -531.99,-6.81l5.93 669.8c4.07,296.46 -523.95,301.16 -524.58,-37.93z"/>
   <path class="fil1" d="M13083.45 8778.18l-686.63 0 0 321.72 539.33 0 0 293.54 -539.33 0 0 342.85 686.63 0 0 309.98 -1031.02 0 0 -1566.33 1031.02 0 0 298.24zm914.77 -298.24l449.44 1566.33 -363.53 0 -89.16 -324.07 -465.69 0 -91.33 324.07 -296.39 0 462.45 -1566.33 394.21 0zm-388.08 953.42l305.4 0 -151.25 -548.73 -154.15 548.73zm1995.61 -953.42l-435.37 1566.33 -363.88 0 -433.21 -1566.33 359.92 0 288.8 1120.15 302.15 -1120.15 281.59 0zm1162.42 298.24l-686.63 0 0 321.72 539.33 0 0 293.54 -539.33 0 0 342.85 686.63 0 0 309.98 -1031.02 0 0 -1566.33 1031.02 0 0 298.24zm1312.23 -298.24l0 1566.33 -293.13 0 -558.11 -1057.92c0.72,26.62 1.44,44.23 2.17,52.84 2.89,26.61 4.33,49.31 4.33,67.71l0 937.37 -264.25 0 0 -1566.33 366.05 0 487.35 923.67c-4.33,-45.79 -6.5,-80.62 -6.5,-104.5l0 -819.17 262.09 0z"/>
  </g>
 </g>
</svg>
