<?xml version="1.0" encoding="UTF-8"?>
<!DOCTYPE svg PUBLIC "-//W3C//DTD SVG 1.1//EN" "http://www.w3.org/Graphics/SVG/1.1/DTD/svg11.dtd">
<!-- Creator: CorelDRAW 2020 (64-Bit Evaluation Version) -->
<svg xmlns="http://www.w3.org/2000/svg" xml:space="preserve" width="297mm" height="210mm" version="1.1" style="shape-rendering:geometricPrecision; text-rendering:geometricPrecision; image-rendering:optimizeQuality; fill-rule:evenodd; clip-rule:evenodd"
viewBox="0 0 29700 21000"
 xmlns:xlink="http://www.w3.org/1999/xlink"
 xmlns:xodm="http://www.corel.com/coreldraw/odm/2003">
 <defs>
  <style type="text/css">
   <![CDATA[
    .str0 {stroke:#DD7538;stroke-width:20;stroke-miterlimit:22.9256}
    .fil0 {fill:#DD7538}
   ]]>
  </style>
 </defs>
 <g id="Layer_x0020_1">
  <metadata id="CorelCorpID_0Corel-Layer"/>
  <g id="_1880925004864">
   <path class="fil0 str0" d="M10615.89 11886.66l-12.82 -4115.97c-28.2,-1071.2 1327.98,-2125.37 2566.9,-1570.77l3449.81 1988.37c1162.63,847.7 1035.62,2343.15 140.38,2958.61l-3559.04 2070.02c-926.83,450.3 -2481.54,-169.53 -2585.23,-1330.26zm699.43 -303.72l0 -3783.56c58.67,-623.89 737.98,-1354.65 1684.51,-864.31l3183.83 1816.82c673.38,416.46 731.92,1509.11 26.46,1896.18l-3316.12 1905.01c-777.7,293.31 -1574.17,-281.57 -1578.68,-970.14z"/>
   <circle class="fil0 str0" cx="15493.57" cy="9710.26" r="386.14"/>
   <path class="fil0 str0" d="M11949.55 11553.37l-4.41 -3608.04c-35.99,-476.76 749.5,-579.05 765.87,-11.23l-0.24 1042.56c69.64,608 836.57,389.16 804.23,4.95 -65.18,-560.81 781.94,-662.92 767.3,0l0 1640.42c-13.81,518.51 -786.15,425.21 -769.51,1.32 31.64,-690.45 -821.59,-630.65 -791.54,-10.14l8.82 996.6c6.05,441.09 -779.58,448.08 -780.52,-56.44z"/>
  </g>
 </g>
</svg>
